<svg width="22" height="22" viewBox="0 0 22 22" fill="none" xmlns="http://www.w3.org/2000/svg">
<g clip-path="url(#clip0_250_249)">
<path d="M16.8667 11.3667H16.1333V12.4667H16.8667V11.3667Z" fill="white"/>
<path d="M0.733333 5.13333H4.76667C4.98667 5.13333 5.13333 4.98667 5.13333 4.76667V0.733333H16.1333V1.83333H16.8667V0.366667C16.8667 0.146667 16.72 0 16.5 0H4.76667C4.73 0 4.69333 0 4.65667 0.0366667H4.62C4.58333 0.0733333 4.54667 0.0733333 4.51 0.11L0.11 4.51C0.0733333 4.54667 0.0733333 4.58333 0.0366667 4.62V4.65667C0.0366667 4.69333 0 4.73 0 4.76667V21.6333C0 21.8533 0.146667 22 0.366667 22H13.5667V21.2667H0.733333V5.13333ZM4.4 4.4H1.24667L2.82333 2.82333L4.4 1.24667V4.4Z" fill="white"/>
<path d="M17.9667 10.6333C20.2033 10.6333 22 8.83665 22 6.59998C22 4.36332 20.2033 2.56665 17.9667 2.56665C15.73 2.56665 13.9333 4.36332 13.9333 6.59998C13.9333 8.83665 15.73 10.6333 17.9667 10.6333ZM17.9667 3.29998C19.8 3.29998 21.2667 4.76665 21.2667 6.59998C21.2667 8.43332 19.8 9.89998 17.9667 9.89998C16.1333 9.89998 14.6667 8.43332 14.6667 6.59998C14.6667 4.76665 16.1333 3.29998 17.9667 3.29998Z" fill="white"/>
<path d="M17.2333 8.43345H17.6V9.16678H18.3333V8.43345H18.7C19.14 8.43345 19.4333 8.14011 19.4333 7.70011V6.96678C19.4333 6.52678 19.14 6.23345 18.7 6.23345H17.2333V5.50011H18.7V5.86678H19.4333V5.50011C19.4333 5.06011 19.14 4.76678 18.7 4.76678H18.3333V4.03345H17.6V4.76678H17.2333C16.7933 4.76678 16.5 5.06011 16.5 5.50011V6.23345C16.5 6.67345 16.7933 6.96678 17.2333 6.96678H18.7V7.70011H17.2333V7.33345H16.5V7.70011C16.5 8.14011 16.7933 8.43345 17.2333 8.43345Z" fill="white"/>
<path d="M21.6333 13.2H15.0333C14.8133 13.2 14.6667 13.3466 14.6667 13.5666V21.6333C14.6667 21.8533 14.8133 22 15.0333 22H21.6333C21.8533 22 22 21.8533 22 21.6333V13.5666C22 13.3466 21.8533 13.2 21.6333 13.2ZM21.2667 13.9333V15.4H15.4V13.9333H21.2667ZM15.4 21.2666V16.1333H21.2667V21.2666H15.4Z" fill="white"/>
<path d="M17.2333 16.8667H16.5V17.6H17.2333V16.8667Z" fill="white"/>
<path d="M18.7 16.8667H17.9667V17.6H18.7V16.8667Z" fill="white"/>
<path d="M20.1667 16.8667H19.4333V17.6H20.1667V16.8667Z" fill="white"/>
<path d="M17.2333 18.3333H16.5V19.0666H17.2333V18.3333Z" fill="white"/>
<path d="M18.7 18.3333H17.9667V19.0666H18.7V18.3333Z" fill="white"/>
<path d="M20.1667 18.3333H19.4333V19.0666H20.1667V18.3333Z" fill="white"/>
<path d="M17.2333 19.8H16.5V20.5334H17.2333V19.8Z" fill="white"/>
<path d="M18.7 19.8H17.9667V20.5334H18.7V19.8Z" fill="white"/>
<path d="M20.1667 19.8H19.4333V20.5334H20.1667V19.8Z" fill="white"/>
<path d="M16.5 14.3H15.7667V15.0334H16.5V14.3Z" fill="white"/>
<path d="M17.6 14.3H16.8667V15.0334H17.6V14.3Z" fill="white"/>
<path d="M18.7 14.3H17.9667V15.0334H18.7V14.3Z" fill="white"/>
<path d="M19.8 14.3H19.0667V15.0334H19.8V14.3Z" fill="white"/>
<path d="M20.9 14.3H20.1667V15.0334H20.9V14.3Z" fill="white"/>
<path d="M9.16667 1.83325H6.96667V2.56659H9.16667V1.83325Z" fill="white"/>
<path d="M12.4667 3.66675H6.96667V4.40008H12.4667V3.66675Z" fill="white"/>
<path d="M3.41 6.7101L2.31 7.8101L2.82333 8.32343L3.3 7.84676V12.8334H4.03333V7.84676L4.51 8.32343L5.02333 7.8101L3.92333 6.7101C3.77667 6.56343 3.55667 6.56343 3.41 6.7101Z" fill="white"/>
<path d="M6.49 9.78998L6.96667 9.31332V12.8333H7.7V9.31332L8.17667 9.78998L8.69 9.27665L7.59 8.17665C7.44333 8.02998 7.22333 8.02998 7.07667 8.17665L5.97667 9.27665L6.49 9.78998Z" fill="white"/>
<path d="M11.3667 7.11337L11.8433 7.59003L12.3567 7.0767L11.2567 5.9767C11.11 5.83003 10.89 5.83003 10.7433 5.9767L9.64333 7.0767L10.1567 7.59003L10.6333 7.11337V12.8334H11.3667V7.11337Z" fill="white"/>
<path d="M8.8 14.6667H3.3V15.4001H8.8V14.6667Z" fill="white"/>
<path d="M12.8333 16.5H3.3V17.2333H12.8333V16.5Z" fill="white"/>
<path d="M12.8333 18.3333H3.3V19.0666H12.8333V18.3333Z" fill="white"/>
<path d="M11 14.6667H9.53333V15.4001H11V14.6667Z" fill="white"/>
</g>
<defs>
<clipPath id="clip0_250_249">
<rect width="22" height="22" fill="white"/>
</clipPath>
</defs>
</svg>
